inDegrees=no
num_controls=7
num_derivatives=13
num_iterations=104
num_multipliers=7
num_parameters=0
num_slacks=7
num_states=26
objective=5.133288
objective_accelerations=0.544771
objective_balance=0.033383
objective_effort=0.313129
objective_height=4.199096
objective_ligament=0.042908
solver_duration=1152.854817
status=Solve_Succeeded
success=true
DataType=double
version=3
OpenSimVersion=4.4-2022-07-23-0e9fedc
endheader
time	/jointset/ground_pelvis/pelvis_tilt/value	/jointset/ground_pelvis/pelvis_tx/value	/jointset/ground_pelvis/pelvis_ty/value	/jointset/hip_l/hip_flexion_l/value	/jointset/hip_l/hip_adduction_l/value	/jointset/hip_l/hip_rotation_l/value	/jointset/back/lumbar_extension/value	/jointset/patellofemoral_l/patellar_flexion_l/value	/jointset/knee_l/knee_flexion_l/value	/jointset/knee_l/knee_adduction_l/value	/jointset/knee_l/knee_rotation_l/value	/jointset/ankle_l/ankle_angle_l/value	/jointset/subtalar_l/subtalar_angle_l/value	/jointset/ground_pelvis/pelvis_tilt/speed	/jointset/ground_pelvis/pelvis_tx/speed	/jointset/ground_pelvis/pelvis_ty/speed	/jointset/hip_l/hip_flexion_l/speed	/jointset/hip_l/hip_adduction_l/speed	/jointset/hip_l/hip_rotation_l/speed	/jointset/back/lumbar_extension/speed	/jointset/patellofemoral_l/patellar_flexion_l/speed	/jointset/knee_l/knee_flexion_l/speed	/jointset/knee_l/knee_adduction_l/speed	/jointset/knee_l/knee_rotation_l/speed	/jointset/ankle_l/ankle_angle_l/speed	/jointset/subtalar_l/subtalar_angle_l/speed	/forceset/tau_hip_flexion_l	/forceset/tau_hip_adduction_l	/forceset/tau_hip_rotation_l	/forceset/tau_knee_flexion_l	/forceset/tau_ankle_angle_l	/forceset/tau_subtalar_angle_l	/forceset/tau_lumbar_extension	lambda_cid13_p0	lambda_cid13_p1	lambda_cid13_p2	lambda_cid13_p3	lambda_cid13_p4	lambda_cid13_p5	lambda_cid14_p0	/jointset/ground_pelvis/pelvis_tilt/accel	/jointset/ground_pelvis/pelvis_tx/accel	/jointset/ground_pelvis/pelvis_ty/accel	/jointset/hip_l/hip_flexion_l/accel	/jointset/hip_l/hip_adduction_l/accel	/jointset/hip_l/hip_rotation_l/accel	/jointset/back/lumbar_extension/accel	/jointset/patellofemoral_l/patellar_flexion_l/accel	/jointset/knee_l/knee_flexion_l/accel	/jointset/knee_l/knee_adduction_l/accel	/jointset/knee_l/knee_rotation_l/accel	/jointset/ankle_l/ankle_angle_l/accel	/jointset/subtalar_l/subtalar_angle_l/accel	gamma_cid13_p0	gamma_cid13_p1	gamma_cid13_p2	gamma_cid13_p3	gamma_cid13_p4	gamma_cid13_p5	gamma_cid14_p0
1	-0.7142181260570853	-0.181975445549999	0.6179496951592977	1.852009939185179	-0.4712926051168937	-0.1251175334018608	-0.2617910413834906	0.9907025012587537	0.9907025012587078	-0.1715355824799146	-0.1745220572847054	-0.08670573878359987	-0.1651297607199033	-0.02089155161171453	0.01002077236431852	0.004677667660868237	0.0008110335856290337	-0.0001123886212004588	-0.000157802972788085	-5.03205771387223e-05	-0.00342225307222302	-0.003422253072221801	-0.002013922038829333	-0.0001621529495648442	0.01684775693973865	0.007307280763794933	-0.404796888062856	0.01382329977595086	-0.001987705821043421	-0.1975550233042127	0.1758275314802304	0.0782371882574748	0.3283898458801033	14.89438442598068	-37.73515440955498	6.992355515017024	-8.653678430922097	-634.2021335789932	-46.6876004186077	-17.18251726300383	2.373318692696128	0.7115701976552988	1.635355240607479	-6.748249769779828	0.2277606177760461	-1.806180724831714	-0.02668577382742551	-3.715749713984247	-3.715749713984184	-0.08710077959703168	-0.01739580932011422	0.2640843049162881	0.364774716553766	1.564829110107356e-09	5.022253107733624e-09	-3.003982240497078e-09	1.898443920937653e-09	-2.321192051750715e-09	6.05099794536636e-09	1.054032317705859e-09
1.01	-0.7143096515066887	-0.1818397493573403	0.6180780785361959	1.851682280075583	-0.4712816431569016	-0.125209404551107	-0.2617914903342274	0.9904824987342549	0.9904824987342218	-0.1715588124140211	-0.1745238805293061	-0.08652400873970437	-0.1650377309883705	0.002588728366579794	0.01712226138191388	0.02099468275359224	-0.06633677873616775	0.002305188279892423	-0.01820836442766952	-3.8688064116021e-05	-0.04056972944889123	-0.04056972944889221	-0.002635101975025764	-0.0002009278536935073	0.01949984249692749	0.01109992276654858	-0.4046627281897889	0.0139060282196487	-0.001979714173296937	-0.1974720050041613	0.1757056398248373	0.07819813751166331	0.3283026884841882	14.86817875278584	-37.71798775626025	6.99462334675034	-8.730398855119137	-634.0583223331345	-46.68541979365435	-17.19260463255682	2.335722134824171	0.7100072573723595	1.629224515343187	-6.697136093969841	0.2488183984230594	-1.803286850339166	0.01520499237040642	-3.7129675550932	-3.712967555094548	-0.05008345389562867	0.00311914522531552	0.266009610108	0.3866969322123226	-9.721972195667733e-10	-1.702742501175029e-09	7.324080411871186e-09	-1.35642874339711e-09	-6.871390697919773e-09	2.161971539974943e-08	-3.396564456875908e-09
1.02	-0.7141663062595305	-0.1816329244737966	0.6183695020383684	1.850683325016677	-0.4712464929934503	-0.125481539913724	-0.2617917995142133	0.9898912772548502	0.9898912772548641	-0.1715883455182837	-0.1745260440274317	-0.08631571005440618	-0.1649077372387932	0.02608258772192128	0.02424651054129743	0.03728569271633216	-0.1334481562816749	0.00472525206681219	-0.03621064566339676	-2.236641097249189e-05	-0.07766604404891544	-0.07766604404891986	-0.003274556041762213	-0.000230203710417841	0.0221614852136588	0.01490008437237616	-0.4045285683167911	0.01398875666348355	-0.001971722526098448	-0.1973889867039076	0.1755837481695881	0.07815908676605829	0.3282155310880949	14.8392007703851	-37.70153379483407	6.998373465854698	-8.831816121929283	-633.9794786630057	-46.68940044007808	-17.21938511022758	2.376034568105955	0.7161222260126668	1.630154214610643	-6.740962814521755	0.228257994942293	-1.796524680999338	-0.02574794580275012	-3.705517358655809	-3.705517358655992	-0.0907556057047499	-0.01549599983734305	0.2659957368245398	0.3662786371692977	-3.040489634379253e-09	-8.030177733677416e-09	1.615148937415477e-08	-4.742838859298376e-09	-1.106262202561622e-08	3.560852164765162e-08	-7.395215205906989e-09
1.03	-0.7137879487535035	-0.1813547338169758	0.6188236392015888	1.849013577559638	-0.4711870803214763	-0.1259333839955737	-0.261791929835786	0.9889294140627202	0.9889294140626922	-0.1716243361040452	-0.1745284161054366	-0.08608079490269822	-0.1647396754906333	0.04959097602107304	0.03139628079932032	0.05353077257904637	-0.2004804268744096	0.007163568207258685	-0.05414348127042281	-2.888469857292117e-06	-0.1146916438485169	-0.1146916438485164	-0.003921590926941828	-0.0002384380316473521	0.02481860272214989	0.01871743631816622	-0.4040280068534933	0.01413239333694085	-0.001965687584255668	-0.1972649038035194	0.1753421487195577	0.07809856485005513	0.3278812160487886	14.78914589445031	-37.67380918218694	7.002319448534514	-8.909861157932289	-633.6159846592444	-46.73956607389427	-17.26288019601908	2.338548697123207	0.7151017743268178	1.620036694230387	-6.681224865499495	0.2525628555777795	-1.789467185221118	0.01591708060987711	-3.698836410535189	-3.698836410535381	-0.05138591318997384	0.007386350067547169	0.2651290210592676	0.3902384976563316	-5.10399905006049e-09	-1.435355622764504e-08	2.496358554368237e-08	-8.130591194093178e-09	-1.525019042149152e-08	4.958120635263053e-08	-1.138925426079979e-08
1.04	-0.7131744458171251	-0.1810049059878518	0.6194398975278615	1.846674134259905	-0.4711030956016995	-0.1265641172704956	-0.2617918410947354	0.9875977438486133	0.9875977438485598	-0.1716667387353434	-0.1745306958268927	-0.08581939672325486	-0.1645332852181393	0.07311167377230343	0.03857394500193889	0.06970992532741421	-0.2673873248212298	0.009639661626987501	-0.0719884842640942	2.144613288825986e-05	-0.1516274484449801	-0.1516274484449757	-0.004556965142723937	-0.0002117324195486109	0.02745809075858172	0.02256578923886127	-0.4035274453905315	0.01427603001021809	-0.001959652642503898	-0.1971408209029737	0.1751005492695832	0.07803804293389853	0.3275469010091408	14.73628604371512	-37.64678251126126	7.007735048507365	-9.012529081947669	-633.3181334804237	-46.79606119461699	-17.32303553905905	2.378496458522356	0.7217010149313783	1.616968791741301	-6.715888285338625	0.2358134507998078	-1.778958158326553	-0.02477661347663693	-3.687558318028592	-3.687558318028976	-0.08842347182487942	-0.008508013169377958	0.2624698424122223	0.3724788321511247	-7.226886104678851e-09	-1.978766136062897e-08	3.361852562296357e-08	-1.04667170906315e-08	-1.936254286972122e-08	6.180765317568351e-08	-1.493229503347159e-08
1.05	-0.7123257044419236	-0.1805831612798932	0.6202175643627557	1.843666379727744	-0.4709940876953578	-0.1273727582900327	-0.2617915270994577	0.9858971494036333	0.9858971494035529	-0.1717154236964349	-0.1745324330913662	-0.08553176814356755	-0.1642882165586209	0.09663379093387724	0.04577950713490524	0.08580709314367811	-0.3341274821247317	0.01217741160577257	-0.08971470645732323	3.983261596935042e-05	-0.1884785424062004	-0.188478542406184	-0.005173531940179884	-0.0001178359931720271	0.03005734154782799	0.02645907668827483	-0.4026037821363313	0.0144640061489152	-0.001960934456789056	-0.1970528465300891	0.1748300874385166	0.07792928231430844	0.3269174292448239	14.68991050241965	-37.60430606941283	7.01567321375341	-9.099240727234172	-632.7439958478666	-46.89140054512291	-17.39986954057107	2.338645150966463	0.7206578158197749	1.603633764069985	-6.647667600708282	0.2650813019231783	-1.765714579717698	0.01491823323387818	-3.681946486584602	-3.681946486583371	-0.04730525004898976	0.02103344007797866	0.257111041166059	0.3994228787070074	-9.351628710513997e-09	-2.519397670108216e-08	4.226855457442455e-08	-1.276997966097432e-08	-2.347254481958698e-08	7.397953006492631e-08	-1.846124210982399e-08
1.06	-0.7112418267338302	-0.1800892261499391	0.6211557114733112	1.839992305992966	-0.4708592371831329	-0.1283579135975865	-0.2617910748486341	0.983828431708799	0.9838284317086584	-0.1717700807190764	-0.1745326923985373	-0.08521845538718791	-0.164003881189133	0.1201389403350678	0.05301202940103637	0.1018059804603372	-0.4006511653424046	0.01480818280478272	-0.1072913418464107	4.909726036522376e-05	-0.2252520984240105	-0.2252520984239812	-0.005751377391346147	8.385921463403721e-05	0.03259492609649845	0.03041913123249655	-0.4016801188825324	0.01465198228736444	-0.001962216272360812	-0.196964872156988	0.1745596256074754	0.07782052169449695	0.3262879574801308	14.64067235858371	-37.56244751707418	7.024988307108165	-9.210064407213578	-632.2367751367248	-46.99342781675779	-17.49333020398928	2.375102906446509	0.727093041563913	1.597312691820217	-6.672593468172668	0.2544176948453802	-1.74904079749734	-0.02660098121412015	-3.67205072934671	-3.672050729346904	-0.08067920256664925	0.01305174311769746	0.2501365942964934	0.3858322511130568	-1.101469407727703e-08	-2.993228237808668e-08	5.119054304339558e-08	-1.551916814524118e-08	-2.684611160924924e-08	8.444503776444916e-08	-2.16356950604153e-08
1.07	-0.709922950381625	-0.1795228113655366	0.6222532853459766	1.835654220750641	-0.4706975585947765	-0.1295178121599183	-0.2617905819998113	0.9813924787888885	0.981392478788832	-0.1718304012773041	-0.1745302363208449	-0.08488007566586819	-0.1636795580491418	0.1436337356286405	0.06027704727297484	0.1176852896758622	-0.4669121016910543	0.01755140119513921	-0.1246377402074505	5.036858992477678e-05	-0.2619149308397538	-0.2619149308397213	-0.006307576239348724	0.0004431634312870583	0.03507117763250212	0.03446503905624889	-0.4004030815986567	0.01489582474012472	-0.001962225124287544	-0.1968265009931383	0.1741882615184089	0.07768711784555314	0.3254247359639323	14.57711035813351	-37.50951153910867	7.034973788366388	-9.315966506229048	-631.4413395374379	-47.13526118551505	-17.60343108413893	2.336275048465047	0.7271204308256779	1.579708293167845	-6.594780668716721	0.2878552160141843	-1.719861326509571	0.01362560135767455	-3.659861285849995	-3.659861285849964	-0.04232442414985377	0.05275781964673433	0.2448946982915271	0.4168998546868694	-1.265320214408942e-08	-3.463505562618435e-08	6.012699744414907e-08	-1.829207609301465e-08	-3.018050631592194e-08	9.481978114536984e-08	-2.479129194048741e-08
1.08	-0.7083692046348994	-0.1788835635482532	0.6235089459621451	1.83065513875474	-0.47050773156153	-0.1308496591000511	-0.2617900495554932	0.9785906051871914	0.978590605187218	-0.1718961306639136	-0.174523109589285	-0.08451722837616743	-0.1633141898695763	0.1671128192282665	0.06757863597721796	0.1334233291615975	-0.5328505160600084	0.02043787178077576	-0.141681017412587	5.701637213386083e-05	-0.2984362347819355	-0.2984362347818996	-0.006833143016632097	0.001017989996194886	0.03748843977008682	0.03862813914721119	-0.399126044314855	0.01513966719293771	-0.001962233977289327	-0.1966881298291145	0.1738168974294229	0.07755371399670972	0.3245615144476049	14.51062724090744	-37.4570544896176	7.046167001867124	-9.445285125592525	-630.7146055737181	-47.28447136411371	-17.73009385191382	2.371960567657944	0.7344072080246304	1.569058745862077	-6.608089072233613	0.2830681339008112	-1.688416566317884	-0.02552569068506359	-3.643745034633938	-3.643745034634108	-0.07455278842274991	0.05615621276725447	0.2383387146122271	0.4092707045542813	-1.370155457310491e-08	-3.941546642752765e-08	6.486627709204831e-08	-2.092854565949231e-08	-3.328671890328928e-08	1.028546067360841e-07	-2.723995869960906e-08
